<svg xmlns="http://www.w3.org/2000/svg" viewBox="0 0 370 300">
    <path fill="rgb(0, 0, 0)" fill-rule="evenodd" d="M362.534 205.116c-13.562 18.02-34.578 22.886-51.059 22.525-25.328 52.711-78.139 67.128-85.324 68.93-39.519 10.001-65.565-5.632-78.139-20.274a183.552 183.552 0 0 1-48.051-6.307c-22.454-6.307-35.477-27.707-41.764-42.349-16.481 0-37.138-4.505-50.61-22.525a37.018 37.018 0 0 1-7.275-22.887c0-24.553 18.861-51.674 28.471-64.063.359-16.489 3.907-57.622 29.639-84.968C71.624 19.187 96.728 9.726 135.213 4.229A446.517 446.517 0 0 1 185.42-.005h.359a440.668 440.668 0 0 1 49.398 4.189c38.171 5.542 63.319 15.003 76.342 28.969 25.777 27.301 29.37 68.524 29.639 84.968 9.7 12.389 28.561 39.6 28.561 64.108a37.114 37.114 0 0 1-7.185 22.887zm-35.297-45.458a170.495 170.495 0 0 0-16.706-24.463l-4.49-5.406.314-6.848v-2.253c0-9.01-1.347-43.7-20.029-63.523-13.292-13.966-67.989-21.624-101.041-22.075-33.411.451-88.468 8.109-101.94 22.075-18.412 19.823-19.759 54.513-19.759 63.974v2.388l.449 6.938-4.491 5.271a169.959 169.959 0 0 0-16.615 24.508c-6.736 11.713-7.635 18.606-7.635 21.76a4.056 4.056 0 0 0 .315 1.937l.134-.495c9.072 11.938 30.178 7.658 30.178 7.658l16.167-3.604 4.491 15.949c2.649 9.19 11.81 29.148 23.037 32.437a159.679 159.679 0 0 0 46.389 4.505l11.227-.676 5.389 9.912v-.271c1.347 2.028 12.709 20.499 45.491 12.39h.27c2.065-.451 49.577-12.39 65.609-59.469l4.94-14.867 15.583 3.424c.09 0 21.106 4.505 30.088-7.659a4.058 4.058 0 0 0 .269-1.802c0-3.153-1.212-10.001-7.634-21.715zm-124.124.045c0-44.601 38.351-83.571 55.955-81.543h-.09c24.789 2.883 30.267 39.42 25.687 53.836-8.308 25.86-81.552 51.585-81.552 27.707zm30.986-32.347c-8.263 0-15.089 2.163-15.089 10.452 0 8.336 6.736 15.093 15.044 15.093 8.301 0 15.031-6.745 15.043-15.07-.012-8.36-6.742-10.475-14.998-10.475zm-21.825 57.576c0 7.569-11.541 23.247-25.821 23.247-14.281 0-25.822-15.768-25.822-22.976v-.271c0-7.343 11.541-13.515 25.822-13.515 14.28 0 25.821 5.947 25.821 13.515zM88.33 131.951c-4.491-14.416.898-51.359 25.597-54.062v.271c17.604-2.073 55.955 36.852 55.955 81.543 0 23.878-73.289-1.802-81.552-27.752zm50.566-4.595c-8.263 0-14.999 2.118-14.999 10.452l-.09.045c0 8.336 6.735 15.093 15.044 15.093 8.308 0 15.044-6.757 15.044-15.093 0-8.379-6.736-10.497-14.999-10.497zm59.098 92.807c37.318-8.29 44.099-35.951 44.368-37.123h-.045c1.761-8.584 10.125-14.11 18.682-12.344 8.556 1.766 14.065 10.157 12.304 18.742-.404 1.937-10.508 48.656-68.438 61.721-8.532 1.903-16.987-3.492-18.884-12.052-1.897-8.559 3.481-17.041 12.013-18.944z"/>
</svg>
