<svg xmlns="http://www.w3.org/2000/svg" viewBox="0 0 1419.09 373.66">
    <path d="M271 9.6V273h-61.53V127.81h-.72l-53.41 96.86h-39.65L62.28 128h-.73v145H0V9.59h62.46l72.78 139.58h1.09L208.56 9.59z" class="foreground"/>
    <path d="M462.25 180.67a157.25 157.25 0 0 1-1.45 17.2H337.34c4.16 20.46 22.09 31.32 42.91 31.32 16.84 0 31.5-7.42 44-21.91L455 241.86c-15.39 19.37-43.27 34.58-80.92 34.58-53.77 0-94.32-38-94.32-94.14 0-55 38.92-94.14 92.15-94.14 52.86 0 90.34 38.56 90.34 92.51zm-89.79-46.17c-17.38 0-31.14 10.14-34.94 28.79l67.89-.36c-3.8-17.56-15.57-28.42-33-28.42z" class="foreground"/>
    <path d="M652 180.67a157.26 157.26 0 0 1-1.45 17.2H527.09c4.16 20.46 22.09 31.32 42.91 31.32 16.84 0 31.5-7.42 44-21.91l30.77 34.58c-15.39 19.37-43.27 34.58-80.92 34.58-53.77 0-94.32-38-94.32-94.14 0-55 38.92-94.14 92.15-94.14 52.86 0 90.34 38.56 90.34 92.51zm-89.79-46.17c-17.38 0-31.14 10.14-34.94 28.79l67.89-.36c-3.8-17.56-15.57-28.42-33-28.42z" class="foreground"/>
    <path d="M773.38 88.16a7.42 7.42 0 0 1 2 .18v62.46c-5.25-.36-10.68-.36-13.58-.36-27.52 0-41.64 17.38-41.64 41.09V273h-57.93V91.6h57.93v24.26h.73c13.76-18.1 32.59-27.7 52.5-27.7z" class="foreground"/>
    <path d="M864.61 206.56l-19.19 21.72V273h-57.93V0h57.93v151.71h.73l52.5-60.1h67.17l-62.28 70.79L967.26 273H903l-37.48-66.44z" class="foreground"/>
    <path d="M1134 91.61V273h-55v-19.55h-.73c-11.59 15.21-28.6 23-50.33 23-50 0-85.45-37.84-85.45-94 0-55.4 35.85-94.32 82.74-94.32 19.55 0 37.11 7.6 50 22.63h.73V91.6zm-94.14 133.79c21.18 0 38.38-16.84 38.38-42.73 0-25-16.47-43.09-38.2-43.09-22.09 0-38.92 17.2-38.92 43.09 0 25.53 16.11 42.73 38.74 42.73z" class="foreground"/>
    <path d="M1166.3 216v-77.15h-20.46V91.6h20.46V33.67l57.93-6.15V91.6h44v47.25h-44v66.26c0 11.77 2.72 20.64 13.76 20.64a43.89 43.89 0 0 0 17.92-4.52l14.3 42.72c-12.49 7.06-25.35 12.49-50.69 12.49-30.95 0-53.22-19.37-53.22-60.44z" class="foreground"/>
    <path d="M1346.13 276.62c-28.42 0-53.95-8.87-74.59-27l27.52-38.92c15.21 14.3 30.6 20.64 47.61 20.64 10.5 0 16.29-3.62 16.29-10.14 0-4.71-5.61-8.51-27.88-15.39-30.23-9.41-56.66-24.62-56.66-60.46 0-35.3 29.87-57.21 68.07-57.21 26.79 0 47.25 7.42 68.25 23l-27.52 41.46c-12.85-12.67-28.6-19-40.91-19-5.07 0-12.85 2-12.85 9.23 0 4.53 6.7 9.05 23.71 15.21 40 14.48 61.74 23.9 61.92 59.92 0 33.67-23.53 58.66-73 58.66z" class="foreground"/>
    <path d="M19.59 321.92H2.5v-11H49v11H31.82v51H19.59z" class="foreground"/>
    <path d="M53.2 310.93h12.31v26.85h25.36v-26.85h12.36v62H90.87v-24.2H65.51v24.21H53.2z" class="foreground"/>
    <path d="M109.93 310.93h39.64v11H122v14.87h22.08v10.83H122V362h29.4v11h-41.47z" class="foreground"/>
    <path d="M219.3 340.08c7.93 2 12.44 7.54 12.44 15.73 0 9.93-6.56 17.13-20.12 17.13H186v-62h22.37c13.17 0 20.24 5.28 20.24 15.13 0 5.54-2.56 11.25-9.29 13.85v.17zm-21.3-3.75h8.78c4.9 0 9.33-2.22 9.33-7.33 0-4.31-3-7.25-10.14-7.2h-8zm21 17.94c0-4.86-3.62-8.06-10.91-8.06H198v15.94h9.89c6.59-.04 11.11-2.59 11.11-7.88z" class="foreground"/>
    <path d="M270.16 372.94l-13.89-21.22h-7.12v21.22H237v-62h23.44c15 0 21.61 8.78 21.61 20.67 0 9.89-4.82 16-12.7 18.67v.17l15.3 22.5zm-21-32h8.61c7.59 0 11.63-3.79 11.63-9.55s-4-9.5-11.12-9.5h-9.12z" class="foreground"/>
    <path d="M328 360.54h-23.8l-4.2 12.4h-12.85l23-62H322l23.06 62H332.2zm-3.58-10.48l-8.31-24.33H316l-8.27 24.33z" class="foreground"/>
    <path d="M400.41 310.93v62h-12.57l-27.28-41.08h-.17v41.08h-12.23v-62h12.23L388 352.82h.17v-41.89z" class="foreground"/>
    <path d="M409.94 310.93h20.5c19.6 0 32.18 12.79 32.18 31.11s-12 30.9-31.92 30.9h-20.76zm20 51.06c12.06 0 20-8.61 20-20 0-11.64-8-20.12-19.18-20.12H422V362z" class="foreground"/>
    <path d="M494.61 310.93h12.27V362h27.57v11h-39.84z" class="foreground"/>
    <path d="M538.83 310.93h39.64v11h-27.54v14.87H573v10.83h-22.07V362h29.37v11h-41.47z" class="foreground"/>
    <path d="M624.78 360.54H601l-4.22 12.4H584l23-62h11.85l23.06 62H629zm-3.58-10.48l-8.31-24.33h-.08l-8.27 24.33z" class="foreground"/>
    <path d="M646 310.93h20.5c19.6 0 32.18 12.79 32.18 31.11s-12 30.9-31.92 30.9H646zM666 362c12.06 0 20-8.61 20-20 0-11.64-8-20.12-19.18-20.12h-8.65V362z" class="foreground"/>
    <path d="M703.53 310.93h39.64v11h-27.53v14.87h22.08v10.83h-22.08V362H745v11h-41.47z" class="foreground"/>
    <path d="M783.89 372.94L770 351.71h-7.12v21.22h-12.1v-62h23.44c15 0 21.61 8.78 21.61 20.67 0 9.89-4.82 16-12.7 18.67v.17l15.3 22.5zm-21-32h8.61c7.59 0 11.63-3.79 11.63-9.55s-4-9.5-11.12-9.5h-9.12z" class="foreground"/>
    <path d="M823.43 373.66a31.26 31.26 0 0 1-22.59-9.76l7.37-9.08c4.65 5.33 10.57 7.76 15.43 7.76 5.92 0 8.91-2.73 8.91-6.56 0-4.56-3.28-6.18-10.78-8.78-9.38-3.24-18.77-7.63-18.77-19.31 0-10 8.78-17.6 19.9-17.73a32.15 32.15 0 0 1 20.9 7.8l-7.08 9.25c-5.16-4.22-9.63-6.1-13.51-6.1-4.26 0-7.41 2.3-7.46 6.22s3.32 5.5 10.44 8.27c10.7 4.18 19.18 7 19.18 18.92 0 13.55-11.8 19.09-22 19.09z" class="foreground"/>
    <path d="M852.69 310.93H865v26.85h25.36v-26.85h12.36v62h-12.35v-24.2H865v24.21h-12.31z" class="foreground"/>
    <path d="M913.62 310.93H926v62h-12.38z" class="foreground"/>
    <path d="M936.92 310.93h22.93c15 0 21.57 8.78 21.57 20.67 0 13.6-9.08 20.12-22.72 20.12H949v21.22h-12.1zm20.24 29.92c7.71 0 11.55-3.79 11.55-9.5s-3.88-9.5-11-9.5H949v19z" class="foreground"/>
    <path d="M1039.31 373.58c-17 0-31.58-11-31.58-31.45 0-17.69 11.34-31.92 31.58-31.92a31.72 31.72 0 0 1 24.69 11.88l-9 7.67c-3.62-4.35-9.25-7.88-15.68-7.88-10.78 0-18.75 7.84-18.75 20.24 0 11.51 7.67 19.82 18.75 19.82a20.27 20.27 0 0 0 15.68-7.84l9 7.71a31 31 0 0 1-24.68 11.76z" class="foreground"/>
    <path d="M1096.27 373.66c-18.75 0-31.62-13.34-31.62-31.75s12.87-31.71 31.62-31.71c18.2 0 31.54 12.79 31.54 31.71s-13.34 31.75-31.54 31.75zm0-11.42c10.7 0 18.75-8.65 18.75-20.33s-8.05-20.24-18.75-20.24c-11.17 0-18.88 9-18.88 20.24s7.71 20.33 18.88 20.33z" class="foreground"/>
    <path d="M1195.58 310.93v62h-12.19v-38.52h-.13l-15.13 26.76h-8L1145 334.41h-.13v38.53h-12.19v-62H1145l19.05 35.29h.17l18.92-35.29z" class="foreground"/>
    <path d="M1204.09 310.93H1227c15 0 21.57 8.78 21.57 20.67 0 13.6-9.08 20.12-22.72 20.12h-9.67v21.22h-12.1zm20.24 29.92c7.71 0 11.55-3.79 11.55-9.5s-3.88-9.5-11-9.5h-8.65v19z" class="foreground"/>
    <path d="M1282.51 360.54h-23.78l-4.22 12.4h-12.83l23-62h11.85l23.06 62h-12.83zm-3.58-10.48l-8.31-24.33h-.08l-8.27 24.33z" class="foreground"/>
    <path d="M1356 310.93v62h-12.6l-27.28-41.08h-.12v41.08h-12.23v-62H1316l27.57 41.89h.17v-41.89z" class="foreground"/>
    <path d="M1415.07 310.93l-20.63 34.78v27.23H1382V345.7l-20.5-34.78h14.06l12.62 22.63h.17l12.49-22.63z" class="foreground"/>
</svg>
